<mxfile host="app.diagrams.net" agent="Mozilla/5.0 (Macintosh; Intel Mac OS X 10_15_7) AppleWebKit/537.36 (KHTML, like Gecko) Chrome/137.0.0.0 Safari/537.36" version="28.0.6">
  <diagram name="Page-1" id="18ZdPO3lSax3tKgi3ux9">
    <mxGraphModel dx="3454" dy="1182" grid="1" gridSize="10" guides="1" tooltips="1" connect="1" arrows="1" fold="1" page="1" pageScale="1" pageWidth="850" pageHeight="1100" math="0" shadow="0">
      <root>
        <mxCell id="0" />
        <mxCell id="1" parent="0" />
        <mxCell id="rqEyXg3e18GSmTRk2NAA-33" value="AI Assistant Backend" style="rounded=0;whiteSpace=wrap;html=1;dashed=1;verticalAlign=bottom;" parent="1" vertex="1">
          <mxGeometry x="200" y="190" width="240" height="370" as="geometry" />
        </mxCell>
        <mxCell id="rqEyXg3e18GSmTRk2NAA-2" value="Document Landing Bucket" style="sketch=0;outlineConnect=0;fontColor=#232F3E;gradientColor=none;fillColor=#7AA116;strokeColor=none;dashed=0;verticalLabelPosition=bottom;verticalAlign=top;align=center;html=1;fontSize=12;fontStyle=0;aspect=fixed;pointerEvents=1;shape=mxgraph.aws4.bucket_with_objects;" parent="1" vertex="1">
          <mxGeometry x="150" width="75" height="78" as="geometry" />
        </mxCell>
        <mxCell id="rqEyXg3e18GSmTRk2NAA-32" style="edgeStyle=orthogonalEdgeStyle;rounded=0;orthogonalLoop=1;jettySize=auto;html=1;" parent="1" source="rqEyXg3e18GSmTRk2NAA-3" target="rqEyXg3e18GSmTRk2NAA-18" edge="1">
          <mxGeometry relative="1" as="geometry">
            <Array as="points">
              <mxPoint x="460" y="549" />
              <mxPoint x="460" y="549" />
            </Array>
          </mxGeometry>
        </mxCell>
        <mxCell id="rqEyXg3e18GSmTRk2NAA-3" value="UW-Workflow Step Function" style="rounded=0;whiteSpace=wrap;html=1;verticalAlign=bottom;dashed=1;" parent="1" vertex="1">
          <mxGeometry x="470" y="60" width="270" height="560" as="geometry" />
        </mxCell>
        <mxCell id="rqEyXg3e18GSmTRk2NAA-6" value="" style="edgeStyle=orthogonalEdgeStyle;rounded=0;orthogonalLoop=1;jettySize=auto;html=1;" parent="1" source="rqEyXg3e18GSmTRk2NAA-4" target="rqEyXg3e18GSmTRk2NAA-5" edge="1">
          <mxGeometry relative="1" as="geometry" />
        </mxCell>
        <mxCell id="rqEyXg3e18GSmTRk2NAA-4" value="Classify" style="outlineConnect=0;dashed=0;verticalLabelPosition=bottom;verticalAlign=top;align=center;html=1;shape=mxgraph.aws3.lambda_function;fillColor=#F58534;gradientColor=none;labelBackgroundColor=default;" parent="1" vertex="1">
          <mxGeometry x="575" y="78" width="69" height="72" as="geometry" />
        </mxCell>
        <mxCell id="rqEyXg3e18GSmTRk2NAA-13" style="edgeStyle=orthogonalEdgeStyle;rounded=0;orthogonalLoop=1;jettySize=auto;html=1;" parent="1" source="rqEyXg3e18GSmTRk2NAA-5" target="rqEyXg3e18GSmTRk2NAA-12" edge="1">
          <mxGeometry relative="1" as="geometry" />
        </mxCell>
        <mxCell id="rqEyXg3e18GSmTRk2NAA-5" value="Extract With Bedrock" style="outlineConnect=0;dashed=0;verticalLabelPosition=bottom;verticalAlign=top;align=center;html=1;shape=mxgraph.aws3.lambda_function;fillColor=#F58534;gradientColor=none;labelBackgroundColor=default;" parent="1" vertex="1">
          <mxGeometry x="575" y="217.5" width="69" height="72" as="geometry" />
        </mxCell>
        <mxCell id="rqEyXg3e18GSmTRk2NAA-16" style="edgeStyle=orthogonalEdgeStyle;rounded=0;orthogonalLoop=1;jettySize=auto;html=1;" parent="1" source="rqEyXg3e18GSmTRk2NAA-12" target="rqEyXg3e18GSmTRk2NAA-15" edge="1">
          <mxGeometry relative="1" as="geometry" />
        </mxCell>
        <mxCell id="rqEyXg3e18GSmTRk2NAA-12" value="Analyze" style="outlineConnect=0;dashed=0;verticalLabelPosition=bottom;verticalAlign=top;align=center;html=1;shape=mxgraph.aws3.lambda_function;fillColor=#F58534;gradientColor=none;labelBackgroundColor=default;" parent="1" vertex="1">
          <mxGeometry x="575" y="360" width="69" height="72" as="geometry" />
        </mxCell>
        <mxCell id="rqEyXg3e18GSmTRk2NAA-15" value="Act" style="outlineConnect=0;dashed=0;verticalLabelPosition=bottom;verticalAlign=top;align=center;html=1;shape=mxgraph.aws3.lambda_function;fillColor=#F58534;gradientColor=none;" parent="1" vertex="1">
          <mxGeometry x="575" y="490" width="69" height="72" as="geometry" />
        </mxCell>
        <mxCell id="rqEyXg3e18GSmTRk2NAA-17" style="edgeStyle=orthogonalEdgeStyle;rounded=0;orthogonalLoop=1;jettySize=auto;html=1;entryX=0.5;entryY=0;entryDx=0;entryDy=0;" parent="1" source="rqEyXg3e18GSmTRk2NAA-2" target="rqEyXg3e18GSmTRk2NAA-3" edge="1">
          <mxGeometry relative="1" as="geometry" />
        </mxCell>
        <mxCell id="rqEyXg3e18GSmTRk2NAA-18" value="Jobs Table" style="sketch=0;points=[[0,0,0],[0.25,0,0],[0.5,0,0],[0.75,0,0],[1,0,0],[0,1,0],[0.25,1,0],[0.5,1,0],[0.75,1,0],[1,1,0],[0,0.25,0],[0,0.5,0],[0,0.75,0],[1,0.25,0],[1,0.5,0],[1,0.75,0]];outlineConnect=0;fontColor=#232F3E;fillColor=#C925D1;strokeColor=#ffffff;dashed=0;verticalLabelPosition=bottom;verticalAlign=top;align=center;html=1;fontSize=12;fontStyle=0;aspect=fixed;shape=mxgraph.aws4.resourceIcon;resIcon=mxgraph.aws4.dynamodb;labelBackgroundColor=default;" parent="1" vertex="1">
          <mxGeometry x="336.5" y="430" width="78" height="78" as="geometry" />
        </mxCell>
        <mxCell id="rqEyXg3e18GSmTRk2NAA-27" style="edgeStyle=orthogonalEdgeStyle;rounded=0;orthogonalLoop=1;jettySize=auto;html=1;" parent="1" source="rqEyXg3e18GSmTRk2NAA-23" target="rqEyXg3e18GSmTRk2NAA-24" edge="1">
          <mxGeometry relative="1" as="geometry">
            <Array as="points">
              <mxPoint x="180" y="330" />
              <mxPoint x="180" y="330" />
            </Array>
          </mxGeometry>
        </mxCell>
        <mxCell id="rqEyXg3e18GSmTRk2NAA-23" value="AI Assistant Frontend" style="rounded=0;whiteSpace=wrap;html=1;dashed=1;verticalAlign=bottom;" parent="1" vertex="1">
          <mxGeometry x="-40" y="190" width="190" height="370" as="geometry" />
        </mxCell>
        <mxCell id="rqEyXg3e18GSmTRk2NAA-20" value="Frontend Hosting Bucket" style="sketch=0;outlineConnect=0;fontColor=#232F3E;gradientColor=none;fillColor=#7AA116;strokeColor=none;dashed=0;verticalLabelPosition=bottom;verticalAlign=top;align=center;html=1;fontSize=12;fontStyle=0;aspect=fixed;pointerEvents=1;shape=mxgraph.aws4.bucket_with_objects;labelBackgroundColor=default;" parent="1" vertex="1">
          <mxGeometry x="17.5" y="210" width="75" height="78" as="geometry" />
        </mxCell>
        <mxCell id="rqEyXg3e18GSmTRk2NAA-22" style="edgeStyle=orthogonalEdgeStyle;rounded=0;orthogonalLoop=1;jettySize=auto;html=1;" parent="1" source="rqEyXg3e18GSmTRk2NAA-21" edge="1">
          <mxGeometry relative="1" as="geometry">
            <mxPoint x="47.25" y="300" as="targetPoint" />
          </mxGeometry>
        </mxCell>
        <mxCell id="rqEyXg3e18GSmTRk2NAA-21" value="CloudFront" style="outlineConnect=0;dashed=0;verticalLabelPosition=bottom;verticalAlign=top;align=center;html=1;shape=mxgraph.aws3.cloudfront;fillColor=#F58536;gradientColor=none;" parent="1" vertex="1">
          <mxGeometry x="9" y="372" width="76.5" height="93" as="geometry" />
        </mxCell>
        <mxCell id="rqEyXg3e18GSmTRk2NAA-28" style="edgeStyle=orthogonalEdgeStyle;rounded=0;orthogonalLoop=1;jettySize=auto;html=1;" parent="1" source="rqEyXg3e18GSmTRk2NAA-24" target="rqEyXg3e18GSmTRk2NAA-26" edge="1">
          <mxGeometry relative="1" as="geometry">
            <Array as="points">
              <mxPoint x="300" y="326" />
              <mxPoint x="300" y="326" />
            </Array>
          </mxGeometry>
        </mxCell>
        <mxCell id="rqEyXg3e18GSmTRk2NAA-24" value="Amazon API Gateway" style="sketch=0;outlineConnect=0;fontColor=#232F3E;gradientColor=none;strokeColor=#ffffff;fillColor=#232F3E;dashed=0;verticalLabelPosition=middle;verticalAlign=bottom;align=center;html=1;whiteSpace=wrap;fontSize=10;fontStyle=1;spacing=3;shape=mxgraph.aws4.productIcon;prIcon=mxgraph.aws4.api_gateway;" parent="1" vertex="1">
          <mxGeometry x="216" y="289.5" width="80" height="110" as="geometry" />
        </mxCell>
        <mxCell id="rqEyXg3e18GSmTRk2NAA-26" value="API Lambda" style="outlineConnect=0;dashed=0;verticalLabelPosition=bottom;verticalAlign=top;align=center;html=1;shape=mxgraph.aws3.lambda_function;fillColor=#F58534;gradientColor=none;labelBackgroundColor=default;" parent="1" vertex="1">
          <mxGeometry x="341" y="289.5" width="69" height="72" as="geometry" />
        </mxCell>
        <mxCell id="rqEyXg3e18GSmTRk2NAA-31" style="edgeStyle=orthogonalEdgeStyle;rounded=0;orthogonalLoop=1;jettySize=auto;html=1;entryX=0.5;entryY=0;entryDx=0;entryDy=0;entryPerimeter=0;" parent="1" source="rqEyXg3e18GSmTRk2NAA-26" target="rqEyXg3e18GSmTRk2NAA-18" edge="1">
          <mxGeometry relative="1" as="geometry" />
        </mxCell>
      </root>
    </mxGraphModel>
  </diagram>
</mxfile>
